# xmcd
#
# Track frame offsets: 
#        150
#        17935
#        33555
#        48447
#        64205
#        79602
#        92852
#        110775
#        125712
#        139320
#        154352
#        169172
#        186260
#        199622
#        219942
#        236780
#        253060
#        268620
#        286712
#        307732
#
# Disc length: 4366 seconds
#
# Revision: 0
# Processed by: cddbd v1.5.2PL0 Copyright (c) Steve Scherf et al.
# Submitted via: ExactAudioCopy v1.0b4
#
DISCID=2a110c14
DTITLE=Various Artist - Music First - Vol. 4
DYEAR=1995
DGENRE=Country
TTITLE0=Collin Raye - Not That Different
TTITLE1=Patty Loveless - Tear Stained Letter
TTITLE2=Ron Wallace - I'm Listening Now
TTITLE3=Ty Herndon - Summer Was A Bummer
TTITLE4=Marcus Hummon - Honky Tonk Mona Lisa
TTITLE5=Stacy Dean Campbell - Honey I Do
TTITLE6=James House - That's Something (You Don't See Every Day)
TTITLE7=Dolly Parton (with Vince Gill) - I Will Always Love You
TTITLE8=Rick Trevino - Save This One For Me
TTITLE9=Wade Hayes - What I Meant To Say
TTITLE10=Joe Diffie - Leroy The Redneck Reindeer
TTITLE11=Patty Loveless - To Feel That Way At All
TTITLE12=Ron Wallace - Busters
TTITLE13=Billy Ray Cyrus - The Fastest Horse In A One Horse Town
TTITLE14=Dolly Parton - Crippled Bird
TTITLE15=Ty Herndon - You Just Get One
TTITLE16=Collin Raye - I Think About You
TTITLE17=Stacy Dean Campbell - Hurt City
TTITLE18=Marcus Hummon - One Of These Days
TTITLE19=Joe Diffie - The Christmas Song
EXTD=
EXTT0=
EXTT1=
EXTT2=
EXTT3=
EXTT4=
EXTT5=
EXTT6=
EXTT7=
EXTT8=
EXTT9=
EXTT10=
EXTT11=
EXTT12=
EXTT13=
EXTT14=
EXTT15=
EXTT16=
EXTT17=
EXTT18=
EXTT19=
PLAYORDER=
